<svg width="88" height="34" viewBox="0 0 88 34" fill="none" xmlns="http://www.w3.org/2000/svg">
<g clip-path="url(#clip0_204_1106)">
<path d="M83.7168 0.03146C78.2775 2.66037 72.8023 5.2983 67.264 7.78743C65.7601 5.43358 63.2747 3.56674 60.42 3.54419C56.6377 3.51263 54.1973 6.91714 52.4818 9.85268C51.5407 11.4625 50.7122 13.1264 49.9288 14.8174C44.6427 16.6797 39.2665 18.2715 33.7822 19.4665C33.6337 18.9073 33.4761 18.3527 33.305 17.8025C30.9276 10.1909 25.8486 1.96144 16.8567 2.32218C12.7278 2.48902 8.91855 4.36038 5.7982 6.98929C3.06509 9.28451 -0.329917 12.8018 0.0257932 16.7158C0.336477 20.1384 3.5964 21.5633 6.59067 21.9872C11.2824 22.65 16.2354 22.393 20.9407 21.9827C25.1506 21.6129 29.2976 20.9636 33.395 20.0933C33.5076 20.5487 33.6156 21.0041 33.7102 21.4641C34.1605 23.6105 34.255 25.7795 34.5657 27.9394C34.7773 29.4094 35.2636 30.9832 36.6549 31.7407C38.0733 32.5118 39.8158 32.097 41.072 31.2086C42.612 30.1219 43.6926 28.3994 44.6652 26.8211C45.8584 24.8911 46.867 22.8529 47.817 20.7922C48.4564 19.4079 49.2669 17.4057 50.2485 15.2683C55.9623 13.2527 61.5772 10.9214 67.1154 8.44578C68.7274 11.1243 68.9885 14.3439 69.0921 17.6447C65.2603 19.8813 61.4286 22.1134 57.5968 24.35C57.2996 24.5214 57.5698 24.9858 57.867 24.81C61.6132 22.623 65.3639 20.436 69.1101 18.249C69.2407 22.8259 69.2182 27.493 72.2485 30.9967C74.5133 33.6166 78.1695 34.9874 81.3664 33.1972C84.7794 31.2898 86.6435 27.0015 87.454 23.358C88.1654 20.1519 88.6652 15.3405 85.6844 13.0678C85.6394 13.0362 85.5944 13.0002 85.5493 12.9686C83.7663 11.6925 81.4834 11.7736 79.4572 12.3283C78.9394 12.4726 78.4261 12.6439 77.9218 12.8378C76.8457 13.2572 75.8101 13.7126 74.8105 14.2853C74.2386 14.6145 73.6758 14.9572 73.104 15.2909C71.9108 15.9853 70.7176 16.6842 69.5244 17.3787C69.4073 14.5919 69.1641 11.8187 68.034 9.23491C67.8854 8.90122 67.7188 8.56753 67.5342 8.24287C70.7446 6.7999 73.9325 5.30732 77.0933 3.80122C79.3897 2.70546 81.686 1.59618 83.9779 0.491409C84.2931 0.342602 84.0229 -0.117348 83.7168 0.03146ZM26.8481 20.7426C21.7466 21.5092 16.5821 21.8834 11.4265 21.7617C7.63979 21.6715 0.908315 21.6986 0.548102 16.5174C0.22391 11.9134 5.32542 7.59353 8.82399 5.43358C13.061 2.8182 18.5362 1.81714 23.1289 4.14844C27.0958 6.16409 29.6488 10.1683 31.3778 14.1365C32.1478 15.8951 32.7736 17.7169 33.2644 19.5747C31.1437 20.0256 29.0049 20.4179 26.8481 20.7426ZM46.5788 22.163C45.5882 24.2012 44.5076 26.2033 43.2108 28.0657C41.833 30.0407 38.7217 33.2784 36.2542 30.7848C34.6918 29.2065 34.9799 26.2935 34.7188 24.2644C34.5342 22.8214 34.264 21.3919 33.9128 19.9805C39.235 18.8216 44.4671 17.2795 49.6226 15.4848C48.605 17.7079 47.6459 19.9625 46.5788 22.163ZM75.5714 14.4702C77.6292 13.4556 79.6959 12.4771 82.0463 12.4906C88.2374 12.5312 87.8817 19.8317 86.711 24.1381C85.5989 28.2325 82.6091 34.0765 77.5166 33.4452C72.0954 32.7734 70.1412 26.8527 69.754 22.1991C69.6369 20.8102 69.6054 19.3943 69.5514 17.9784C71.5596 16.8105 73.5677 15.6426 75.5714 14.4702ZM50.5547 14.5919C53.729 7.84605 58.5874 0.225362 65.1883 6.11899C65.8367 6.70069 66.377 7.32297 66.8228 7.98133C61.4736 10.3803 56.0614 12.6304 50.5547 14.5919Z" fill="#842E1B"/>
</g>
<defs>
<clipPath id="clip0_204_1106">
<rect width="34" height="88" fill="white" transform="translate(1.48619e-06 34) rotate(-90)"/>
</clipPath>
</defs>
</svg>
