<svg width="35" height="29" viewBox="0 0 35 29" fill="none" xmlns="http://www.w3.org/2000/svg">
<path d="M33.0046 0.5H1.74539C1.41509 0.5 1.09832 0.631533 0.864766 0.865663C0.63121 1.09979 0.5 1.41734 0.5 1.74845V21.4989C0.5 21.83 0.63121 22.1476 0.864766 22.3817C1.09832 22.6159 1.41509 22.7474 1.74539 22.7474H6.54013V27.7412C6.53831 27.7911 6.55148 27.8405 6.57793 27.8828C6.60438 27.9252 6.6429 27.9586 6.6885 27.9788C6.73411 27.9989 6.7847 28.0049 6.83374 27.9959C6.88277 27.987 6.928 27.9635 6.96356 27.9285L13.3275 22.7973H33.0046C33.3349 22.7973 33.6517 22.6658 33.8852 22.4317C34.1188 22.1975 34.25 21.88 34.25 21.5489V1.74845C34.25 1.41734 34.1188 1.09979 33.8852 0.865663C33.6517 0.631533 33.3349 0.5 33.0046 0.5Z" stroke="#842E1B" stroke-miterlimit="10" stroke-linecap="round" stroke-linejoin="round"/>
<path d="M24.1566 10.1759C24.0945 10.0002 23.9791 9.8483 23.8265 9.74142C23.6739 9.63454 23.4918 9.57805 23.3056 9.57983H19.4015L18.21 6.09905C18.1471 5.92365 18.0316 5.77199 17.8792 5.66476C17.7269 5.55754 17.5452 5.5 17.359 5.5C17.1727 5.5 16.9911 5.55754 16.8387 5.66476C16.6864 5.77199 16.5709 5.92365 16.508 6.09905L15.3165 9.57983H11.4124C11.2262 9.57805 11.044 9.63454 10.8914 9.74142C10.7389 9.8483 10.6235 10.0002 10.5614 10.1759C10.4868 10.3654 10.48 10.5749 10.542 10.7689C10.604 10.9628 10.7311 11.1294 10.9018 11.2404L14.0187 13.3693L12.8379 16.8288C12.7746 17.0086 12.7726 17.2043 12.8323 17.3854C12.8919 17.5664 13.0099 17.7225 13.1677 17.8294C13.3229 17.9403 13.5088 18 13.6996 18C13.8903 18 14.0763 17.9403 14.2314 17.8294L17.4228 15.7005L20.6142 17.8294C20.7694 17.9403 20.9553 18 21.1461 18C21.3368 18 21.5228 17.9403 21.678 17.8294C21.8357 17.7225 21.9537 17.5664 22.0134 17.3854C22.073 17.2043 22.071 17.0086 22.0077 16.8288L20.8269 13.3693L23.9438 11.2404C24.0926 11.1119 24.1943 10.9375 24.2329 10.7447C24.2714 10.5519 24.2445 10.3517 24.1566 10.1759Z" stroke="#842E1B" stroke-miterlimit="10" stroke-linecap="round" stroke-linejoin="round"/>
</svg>
