<svg width="40" height="40" viewBox="0 0 40 40" fill="none" xmlns="http://www.w3.org/2000/svg">
<path d="M11.25 28.75V11.2433C11.25 9.25595 12.0674 7.35 13.5225 5.94474C14.9775 4.53947 16.9509 3.75 19.0086 3.75H22.2414C24.2991 3.75 26.2725 4.53947 27.7276 5.94474C29.1826 7.35 30 9.25595 30 11.2433V26.8613C30 28.6883 29.2485 30.4405 27.9109 31.7324C26.5733 33.0242 24.7591 33.75 22.8674 33.75" stroke="#842E1B" stroke-miterlimit="10" stroke-linecap="round" stroke-linejoin="round"/>
<path d="M11.25 15H10.3486C8.93003 15 7.5696 15.6082 6.56656 16.6907C5.56351 17.7732 5 19.2415 5 20.7724V22.9776C5 24.5085 5.56351 25.9768 6.56656 27.0593C7.5696 28.1418 8.93003 28.75 10.3486 28.75H11.25" stroke="#842E1B" stroke-miterlimit="10" stroke-linecap="round" stroke-linejoin="round"/>
<path d="M30 15H30.9014C32.32 15 33.6804 15.6082 34.6834 16.6907C35.6865 17.7732 36.25 19.2415 36.25 20.7724V22.9776C36.25 24.5085 35.6865 25.9768 34.6834 27.0593C33.6804 28.1418 32.32 28.75 30.9014 28.75H30" stroke="#842E1B" stroke-miterlimit="10" stroke-linecap="round" stroke-linejoin="round"/>
<path d="M8.75 18.75V23.75" stroke="#842E1B" stroke-miterlimit="10" stroke-linecap="round" stroke-linejoin="round"/>
<path d="M33.75 18.75V23.75" stroke="#842E1B" stroke-miterlimit="10" stroke-linecap="round" stroke-linejoin="round"/>
<path d="M11.25 13.75C11.25 11.7609 12.0674 9.85322 13.5225 8.4467C14.9775 7.04018 16.9509 6.25 19.0086 6.25H22.2414C24.2991 6.25 26.2725 7.04018 27.7276 8.4467C29.1826 9.85322 30 11.7609 30 13.75" stroke="#842E1B" stroke-miterlimit="10" stroke-linecap="round" stroke-linejoin="round"/>
<path d="M21.0957 32.5H15.1543C14.3787 32.5 13.75 33.0596 13.75 33.75C13.75 34.4404 14.3787 35 15.1543 35H21.0957C21.8713 35 22.5 34.4404 22.5 33.75C22.5 33.0596 21.8713 32.5 21.0957 32.5Z" stroke="#842E1B" stroke-miterlimit="10" stroke-linecap="round" stroke-linejoin="round"/>
</svg>

