<svg width="40" height="40" viewBox="0 0 40 40" fill="none" xmlns="http://www.w3.org/2000/svg">
<path d="M33.75 11.25H6.25C5.55964 11.25 5 11.8038 5 12.487V33.763C5 34.4462 5.55964 35 6.25 35H33.75C34.4404 35 35 34.4462 35 33.763V12.487C35 11.8038 34.4404 11.25 33.75 11.25Z" stroke="#842E1B" stroke-miterlimit="10" stroke-linecap="round" stroke-linejoin="round"/>
<path d="M6.25 11.25L30.6413 5.04649C31.0284 4.9507 31.4394 5.00418 31.7855 5.19538C32.1317 5.38657 32.3852 5.70015 32.4914 6.06839L33.75 11.25" stroke="#842E1B" stroke-miterlimit="10" stroke-linecap="round" stroke-linejoin="round"/>
<path d="M35 20H29.001C28.6033 20 28.2218 20.1955 27.9406 20.5435C27.6593 20.8915 27.5013 21.3635 27.5013 21.8557V25.567C27.4929 25.8171 27.5254 26.0668 27.597 26.3009C27.6686 26.5351 27.7777 26.7489 27.9178 26.9294C28.058 27.11 28.2262 27.2537 28.4123 27.3517C28.5985 27.4498 28.7987 27.5002 29.001 27.5H35" stroke="#842E1B" stroke-miterlimit="10" stroke-linecap="round" stroke-linejoin="round"/>
<path d="M30 23.75H31.25" stroke="#842E1B" stroke-miterlimit="10" stroke-linecap="round" stroke-linejoin="round"/>
</svg>

