<svg width="576" height="313" viewBox="0 0 576 313" fill="none" xmlns="http://www.w3.org/2000/svg">
<g clip-path="url(#clip0_245_4107)">
<path d="M289.849 313C446.036 313 572.651 304.624 572.651 294.291C572.651 283.958 446.036 275.582 289.849 275.582C133.662 275.582 7.04688 283.958 7.04688 294.291C7.04688 304.624 133.662 313 289.849 313Z" fill="#F2F2F2"/>
<path d="M279.01 89.475C232.934 89.475 199.852 119.016 199.852 187.944C199.852 266.063 232.934 286.742 279.01 286.742C325.086 286.742 360.139 264.094 360.139 187.944C360.139 106.543 325.086 89.475 279.01 89.475ZM279.313 260.811C247.399 260.811 230.727 242.102 230.727 187.995C230.727 140.253 248.082 115.077 279.995 115.077C311.909 115.077 329.264 131.614 329.264 187.995C329.264 240.737 311.226 260.811 279.313 260.811Z" fill="#2F2E41"/>
<path d="M172.262 232.255H153.211V176.195C153.211 173.217 152.028 170.362 149.921 168.256C147.814 166.151 144.956 164.968 141.976 164.968H137.513C136.037 164.968 134.576 165.258 133.213 165.823C131.85 166.387 130.612 167.214 129.568 168.256C128.525 169.299 127.698 170.536 127.133 171.899C126.568 173.261 126.278 174.721 126.278 176.195V232.255H72.5427C71.4372 232.255 70.3505 231.97 69.3881 231.426C68.4256 230.883 67.62 230.1 67.0494 229.154C66.4788 228.208 66.1626 227.131 66.1315 226.026C66.1004 224.922 66.3554 223.829 66.8718 222.852L123.744 115.284C124.453 113.943 124.883 112.473 125.008 110.961C125.132 109.449 124.949 107.928 124.469 106.489C123.989 105.05 123.222 103.723 122.215 102.589C121.208 101.454 119.981 100.535 118.608 99.8876L115.251 98.3033C112.644 97.0731 109.664 96.8914 106.926 97.7959C104.189 98.7004 101.905 100.622 100.546 103.163L31.1819 232.831C30.0008 235.039 29.3828 237.504 29.3828 240.008C29.3828 242.007 29.7769 243.986 30.5424 245.833C31.308 247.681 32.4302 249.359 33.8448 250.772C35.2594 252.186 36.9388 253.307 38.7871 254.072C40.6354 254.838 42.6164 255.231 44.617 255.231H126.278V290.68C126.278 292.447 126.626 294.197 127.303 295.83C127.98 297.463 128.972 298.946 130.222 300.196C131.473 301.446 132.957 302.437 134.591 303.113C136.225 303.79 137.976 304.138 139.744 304.138H139.744C141.513 304.138 143.264 303.79 144.898 303.113C146.532 302.437 148.016 301.446 149.267 300.196C150.517 298.946 151.509 297.463 152.186 295.83C152.863 294.197 153.211 292.447 153.211 290.68V255.231H172.262C175.311 255.231 178.235 254.021 180.391 251.867C182.547 249.712 183.758 246.79 183.758 243.743C183.758 240.696 182.547 237.774 180.391 235.62C178.235 233.466 175.311 232.255 172.262 232.255Z" fill="#842E1B"/>
<path d="M525.023 232.255H505.973V176.195C505.973 173.217 504.789 170.362 502.682 168.256C500.575 166.151 497.718 164.968 494.738 164.968H490.274C488.799 164.968 487.338 165.258 485.975 165.823C484.612 166.387 483.373 167.214 482.33 168.256C481.287 169.299 480.459 170.536 479.895 171.899C479.33 173.261 479.039 174.721 479.039 176.195V232.255H425.304C424.199 232.255 423.112 231.97 422.15 231.426C421.187 230.883 420.382 230.1 419.811 229.154C419.24 228.208 418.924 227.131 418.893 226.026C418.862 224.922 419.117 223.829 419.634 222.852L476.506 115.284C477.215 113.943 477.645 112.473 477.769 110.961C477.894 109.449 477.711 107.928 477.231 106.489C476.751 105.05 475.984 103.723 474.977 102.589C473.969 101.454 472.742 100.535 471.37 99.8876L468.013 98.3033C465.406 97.0731 462.425 96.8914 459.688 97.7959C456.951 98.7004 454.666 100.622 453.307 103.163L383.944 232.831C382.762 235.039 382.145 237.504 382.145 240.008C382.145 244.045 383.75 247.917 386.607 250.772C389.464 253.627 393.338 255.231 397.379 255.231H479.039V290.68C479.039 294.249 480.458 297.672 482.984 300.196C485.509 302.72 488.935 304.138 492.506 304.138C496.078 304.138 499.503 302.72 502.029 300.196C504.554 297.672 505.973 294.249 505.973 290.68V255.231H525.023C528.072 255.231 530.996 254.021 533.152 251.867C535.308 249.712 536.519 246.79 536.519 243.743C536.519 240.696 535.308 237.774 533.152 235.62C530.996 233.466 528.072 232.255 525.023 232.255Z" fill="#842E1B"/>
<path d="M177.516 225.691H158.465V169.63C158.465 168.156 158.175 166.696 157.61 165.334C157.045 163.972 156.218 162.734 155.175 161.692C154.131 160.649 152.893 159.822 151.53 159.258C150.167 158.694 148.706 158.403 147.23 158.403H142.766C139.787 158.403 136.929 159.586 134.822 161.692C132.715 163.797 131.532 166.653 131.532 169.63V225.691H77.7966C76.6911 225.691 75.6045 225.405 74.642 224.862C73.6795 224.318 72.8739 223.536 72.3033 222.59C71.7327 221.643 71.4165 220.566 71.3854 219.462C71.3543 218.357 71.6093 217.264 72.1257 216.287L128.998 108.72C129.707 107.379 130.137 105.908 130.262 104.396C130.386 102.885 130.203 101.363 129.723 99.9245C129.243 98.4856 128.476 97.1588 127.469 96.0242C126.462 94.8896 125.235 93.9707 123.862 93.323L120.505 91.7387C117.898 90.5085 114.917 90.3269 112.18 91.2313C109.443 92.1358 107.159 94.0572 105.799 96.5979L36.4358 226.266C35.2547 228.474 34.6367 230.939 34.6367 233.443V233.443C34.6367 237.481 36.2417 241.353 39.0987 244.208C41.9557 247.063 45.8306 248.667 49.8709 248.667H131.532V284.116C131.532 285.883 131.88 287.633 132.557 289.266C133.234 290.898 134.225 292.382 135.476 293.632C136.726 294.881 138.211 295.872 139.845 296.549C141.479 297.225 143.23 297.573 144.998 297.573H144.998C148.57 297.573 151.995 296.155 154.521 293.632C157.046 291.108 158.465 287.685 158.465 284.116V248.667H177.516C179.025 248.667 180.52 248.37 181.915 247.792C183.31 247.215 184.577 246.369 185.645 245.302C186.712 244.235 187.559 242.969 188.137 241.575C188.714 240.181 189.012 238.687 189.012 237.179V237.179C189.012 235.67 188.714 234.176 188.137 232.782C187.559 231.389 186.712 230.122 185.645 229.055C184.577 227.989 183.31 227.142 181.915 226.565C180.52 225.988 179.025 225.691 177.516 225.691V225.691Z" stroke="#3F3D56" stroke-miterlimit="10"/>
<path d="M534.879 225.691H515.828V169.63C515.828 166.653 514.645 163.797 512.538 161.692C510.431 159.586 507.573 158.403 504.594 158.403H500.13C498.654 158.403 497.193 158.694 495.83 159.258C494.467 159.822 493.229 160.649 492.186 161.692C491.142 162.734 490.315 163.972 489.75 165.334C489.186 166.696 488.895 168.156 488.895 169.63V225.691H435.16C434.054 225.691 432.968 225.405 432.005 224.862C431.043 224.318 430.237 223.536 429.667 222.59C429.096 221.643 428.78 220.566 428.749 219.462C428.718 218.357 428.973 217.264 429.489 216.287L486.362 108.72C487.071 107.379 487.5 105.908 487.625 104.396C487.75 102.885 487.566 101.363 487.086 99.9245C486.606 98.4856 485.839 97.1588 484.832 96.0242C483.825 94.8896 482.598 93.9707 481.225 93.323L477.868 91.7387C475.261 90.5085 472.281 90.3269 469.544 91.2313C466.806 92.1358 464.522 94.0572 463.163 96.5979L393.799 226.266C392.618 228.474 392 230.939 392 233.443C392 237.481 393.605 241.353 396.462 244.208C399.319 247.063 403.194 248.667 407.234 248.667H488.895V284.116C488.895 287.685 490.314 291.108 492.839 293.632C495.365 296.155 498.79 297.573 502.362 297.573V297.573C505.933 297.573 509.359 296.155 511.884 293.632C514.41 291.108 515.828 287.685 515.828 284.116V248.667H534.879C536.389 248.667 537.883 248.37 539.278 247.792C540.673 247.215 541.94 246.369 543.008 245.302C544.075 244.235 544.922 242.969 545.5 241.575C546.078 240.181 546.375 238.687 546.375 237.179V237.179C546.375 234.132 545.164 231.21 543.008 229.055C540.852 226.901 537.928 225.691 534.879 225.691V225.691Z" stroke="#3F3D56" stroke-miterlimit="10"/>
<path d="M289.521 83.5668C243.445 83.5668 210.363 113.108 210.363 182.036C210.363 260.155 243.445 280.833 289.521 280.833C335.598 280.833 370.65 258.186 370.65 182.036C370.65 100.635 335.598 83.5668 289.521 83.5668ZM289.824 254.903C257.911 254.903 241.238 236.193 241.238 182.086C241.238 134.345 258.594 109.169 290.507 109.169C322.42 109.169 339.776 125.706 339.776 182.086C339.775 234.829 321.738 254.903 289.824 254.903V254.903Z" stroke="#3F3D56" stroke-miterlimit="10"/>
<path d="M252.588 16.6894C256.408 16.6894 259.505 13.5949 259.505 9.77761C259.505 5.96035 256.408 2.86584 252.588 2.86584C248.769 2.86584 245.672 5.96035 245.672 9.77761C245.672 13.5949 248.769 16.6894 252.588 16.6894Z" fill="#2F2E41"/>
<path d="M269.455 50.2367C280.169 50.2367 288.855 38.9909 288.855 25.1184C288.855 11.2459 280.169 0 269.455 0C258.74 0 250.055 11.2459 250.055 25.1184C250.055 38.9909 258.74 50.2367 269.455 50.2367Z" fill="#2F2E41"/>
<path opacity="0.1" d="M269.455 42.6506C259.736 42.6506 251.687 33.398 250.275 21.3253C250.128 22.5843 250.054 23.8508 250.055 25.1184C250.055 38.9908 258.74 50.2367 269.455 50.2367C280.169 50.2367 288.855 38.9909 288.855 25.1184C288.855 23.8508 288.782 22.5843 288.635 21.3253C287.222 33.398 279.173 42.6506 269.455 42.6506Z" fill="black"/>
<path d="M308.934 98.6785C308.517 100.389 306.721 101.76 304.732 102.717C300.549 104.73 295.39 105.33 290.385 105.532C289.109 105.609 287.828 105.586 286.555 105.461C284.088 105.223 281.774 104.16 279.987 102.444C279.86 102.361 279.755 102.247 279.684 102.113C279.612 101.978 279.576 101.828 279.578 101.676C279.581 101.524 279.621 101.375 279.697 101.243C279.773 101.11 279.881 101 280.011 100.921C282.675 97.996 287.121 96.2027 291.599 94.9115C294.995 93.9325 300.918 91.3966 304.622 91.7388C308.209 92.0703 309.46 96.5183 308.934 98.6785Z" fill="#3F3D56"/>
<path opacity="0.1" d="M308.934 98.6785C308.517 100.389 306.721 101.76 304.732 102.717C300.549 104.73 295.39 105.33 290.385 105.532C289.109 105.609 287.828 105.586 286.555 105.461C284.088 105.223 281.774 104.16 279.987 102.444C279.86 102.361 279.755 102.247 279.684 102.113C279.612 101.978 279.576 101.828 279.578 101.676C279.581 101.524 279.621 101.375 279.697 101.243C279.773 101.11 279.881 101 280.011 100.921C282.675 97.996 287.121 96.2027 291.599 94.9115C294.995 93.9325 300.918 91.3966 304.622 91.7388C308.209 92.0703 309.46 96.5183 308.934 98.6785Z" fill="black"/>
<path d="M255.752 85.8917C254.475 88.3923 254.244 91.2971 255.109 93.968C255.989 96.6186 257.637 98.9486 259.843 100.663C265.255 104.998 272.703 105.595 279.639 105.535C285.717 105.482 291.787 105.066 297.816 104.29C299.836 104.111 301.821 103.65 303.714 102.921C305.978 101.942 307.967 100.147 308.773 97.8176C309.579 95.4881 309.007 92.6356 307.093 91.081C305.411 89.715 303.092 89.5271 300.928 89.3972L288.551 88.6539C289.774 87.4172 291.402 86.7177 292.891 85.8186C294.867 84.6258 296.179 82.6231 297.616 80.8176C299.829 78.174 302.238 75.6997 304.821 73.4152C305.223 75.7244 306.685 77.6207 308.406 79.2141C310.126 80.8075 312.11 82.0902 313.898 83.6073C318.229 87.2817 321.348 92.2687 325.903 95.6618C329.036 94.839 331.965 93.3776 334.506 91.3693L332.736 88.1648C332.589 87.835 332.359 87.5486 332.069 87.3329C331.568 87.0248 330.922 87.1835 330.34 87.0964C328.785 86.8633 328.106 85.0691 327.495 83.6208C325.82 79.6446 322.612 76.5597 319.873 73.2253C317.851 70.7639 316.057 68.1237 314.514 65.3375C313.594 63.6759 312.751 61.9457 311.502 60.5141C310.254 59.0825 308.504 57.957 306.603 57.953C304.924 57.9494 303.375 58.8013 301.931 59.6583C297.534 62.2685 293.303 65.149 289.263 68.2832C287.148 69.9235 285.047 71.6565 282.567 72.6624C281.523 73.0858 280.422 73.3752 279.42 73.8905C277.666 74.7929 276.334 76.3197 274.9 77.6751C269.787 82.5092 262.786 85.6412 255.752 85.8917Z" fill="#3F3D56"/>
<path d="M281.631 51.4842C281.573 52.9619 281.259 54.4182 280.701 55.7881C280.419 56.4713 279.998 57.0889 279.466 57.6026C278.934 58.1163 278.302 58.5149 277.609 58.7736C276.625 59.0371 275.594 59.0705 274.595 58.8714C273.723 58.7804 272.884 58.4947 272.138 58.0352C270.978 57.2378 270.399 55.815 270.188 54.4226C269.977 53.0318 270.072 51.6106 269.937 50.2097C269.805 49.0782 269.59 47.958 269.292 46.8584C269.201 46.4926 269.109 46.1285 269.017 45.7643C268.928 45.4002 268.84 45.036 268.759 44.6719C268.685 44.3297 268.616 43.9858 268.557 43.6402C268.508 43.3486 268.464 43.0552 268.432 42.7602C268.403 41.8856 268.257 41.0188 267.999 40.1826C267.756 39.6403 267.453 39.1274 267.094 38.6536C266.941 38.4345 266.792 38.2153 266.656 37.9877C266.261 37.3963 266.077 36.6888 266.134 35.98C266.151 35.8704 266.177 35.7626 266.214 35.658C266.227 35.6175 266.242 35.5771 266.259 35.5383C266.411 35.4971 266.55 35.4195 266.665 35.3123C266.78 35.2051 266.867 35.0714 266.919 34.9229C266.977 34.604 266.95 34.2754 266.84 33.9705C266.714 33.5443 266.541 33.1333 266.325 32.7449C266.183 32.4886 265.703 32.0267 265.699 31.7334C265.692 31.1434 266.846 30.668 267.314 30.4353C268.74 29.7216 270.331 29.3993 271.922 29.5014C272.943 29.5705 274.05 29.8841 274.613 30.7388C275.119 31.5092 275.052 32.5072 275.268 33.4023C275.29 33.5325 275.346 33.6548 275.428 33.758C275.538 33.8583 275.677 33.9219 275.824 33.9401C276.074 33.9898 276.33 34 276.584 33.9705H276.585C276.652 33.9652 276.719 33.9556 276.784 33.9418C277.178 33.8691 277.551 33.7083 277.874 33.4714C278.083 33.4158 278.294 33.3703 278.507 33.3349C278.515 33.334 278.524 33.3323 278.532 33.3298C279.377 35.9951 279.487 38.8525 280.178 41.5666C280.521 42.917 281.012 44.2504 281.081 45.6395C281.086 45.7002 281.088 45.7626 281.089 45.825C281.1 46.2717 281.064 46.7218 281.083 47.1669C281.089 47.3673 281.112 47.5668 281.15 47.7636C281.226 48.0801 281.32 48.392 281.432 48.6976L281.437 48.7127C281.469 48.8105 281.499 48.91 281.525 49.0094C281.543 49.0819 281.56 49.1527 281.574 49.2252L281.575 49.2303C281.7 49.9752 281.719 50.734 281.631 51.4842Z" fill="#FBBEBE"/>
<path d="M269.793 34.0531C275.29 34.0531 279.746 29.6 279.746 24.1069C279.746 18.6138 275.29 14.1607 269.793 14.1607C264.296 14.1607 259.84 18.6138 259.84 24.1069C259.84 29.6 264.296 34.0531 269.793 34.0531Z" fill="#FBBEBE"/>
<path d="M332.986 78.2985C332.697 75.5849 331.732 72.987 330.179 70.7427C330.437 72.2768 330.695 73.8103 330.955 75.3433C330.632 75.4365 330.29 75.4336 329.969 75.3351C329.649 75.2366 329.364 75.0467 329.15 74.7887C328.73 74.2657 328.41 73.6711 328.203 73.0337C327.072 70.2286 325.594 67.5763 323.802 65.1392C317.466 64.6115 311.202 61.9867 305.63 58.927C300.056 55.869 294.84 52.2024 289.341 49.0145C288.387 48.4386 287.394 47.9316 286.368 47.4973C284.648 46.8078 282.716 46.4504 281.085 45.6395C280.975 45.5856 280.865 45.5283 280.757 45.4693C280.389 45.269 280.04 45.0348 279.715 44.7697C279.539 44.6271 279.372 44.474 279.215 44.3111C278.402 43.3649 277.756 42.286 277.308 41.1216C276.432 39.1863 276.12 36.8515 275.246 34.9162C275.648 34.5411 276.099 34.2229 276.587 33.9705H276.589C276.66 33.9334 276.731 33.898 276.803 33.8643C277.149 33.7015 277.509 33.5701 277.878 33.4715C278.087 33.4158 278.298 33.3703 278.51 33.3349C278.519 33.334 278.527 33.3323 278.536 33.3298C279.521 33.1694 280.531 33.2492 281.479 33.5625C282.866 34.0311 284.035 34.9668 285.201 35.8518C287.095 37.1851 288.911 38.6248 290.641 40.1641C291.603 41.0845 292.48 42.096 293.514 42.9321C294.374 43.5949 295.279 44.1949 296.225 44.7275C301.821 48.0586 307.417 51.3892 313.014 54.7192C314.908 55.847 316.804 56.9748 318.657 58.1684C321.471 59.9823 324.183 61.9479 326.894 63.9119C328.492 65.0683 330.089 66.2254 331.685 67.3829C332.209 67.7168 332.669 68.1416 333.043 68.6372C333.374 69.1998 333.579 69.8272 333.645 70.4764C334.046 73.0992 333.82 75.7796 332.986 78.2985Z" fill="#FBBEBE"/>
<path d="M284.1 58.9641C283.429 61.9733 280.385 63.7923 278.795 66.4356C276.817 69.7161 277.624 73.5294 278.366 77.287C277.01 78.4553 275.653 79.6236 274.295 80.7918C273.546 81.4341 272.797 82.0797 271.991 82.6479C270.815 83.4352 269.586 84.1404 268.313 84.7585C267.112 85.3755 265.911 85.9931 264.71 86.6112C263.594 87.2386 262.41 87.7396 261.183 88.1048C258.816 88.7117 256.302 88.2869 253.961 87.5839C253.685 87.5115 253.419 87.4033 253.171 87.2619C253.025 87.1749 252.898 87.0597 252.797 86.923C252.566 86.5095 252.482 86.0299 252.559 85.5626C252.797 81.6246 253.76 77.7692 254.72 73.9424C255.233 71.6466 255.923 69.3939 256.783 67.2043C257.627 65.3281 258.597 63.5112 259.686 61.7659C260.889 59.57 262.313 57.5031 263.938 55.5976C264.728 54.8642 265.394 54.0066 265.908 53.0588C266.507 51.6933 266.276 50.1272 266.397 48.6403C266.49 47.5232 266.787 46.4325 267.273 45.4221V45.4204C267.533 44.8762 267.846 44.359 268.207 43.8762C268.371 44.2572 268.535 44.6376 268.698 45.0175C268.806 45.267 268.913 45.516 269.019 45.7643C269.157 46.0846 269.294 46.4038 269.43 46.7219C269.823 47.6356 270.216 48.5487 270.608 49.4613C271.031 50.6107 271.635 51.6856 272.396 52.6458C272.744 53.1375 273.213 53.5306 273.759 53.7867C274.304 54.0429 274.906 54.1533 275.507 54.1073C276.108 54.0613 276.687 53.8603 277.187 53.5241C277.686 53.1879 278.091 52.7278 278.359 52.1889C278.926 51.183 279.337 50.0967 279.577 48.9674C279.91 47.5923 279.956 46.1633 279.712 44.7697C279.306 42.0859 278.164 39.3448 277.334 36.8515C276.996 36.0202 276.8 35.138 276.755 34.2419C276.757 34.1412 276.767 34.0408 276.785 33.9418C276.79 33.9166 276.796 33.8896 276.801 33.8643C277.146 33.7016 277.506 33.5701 277.875 33.4715C278.084 33.4159 278.295 33.3704 278.508 33.335C279.238 37.2865 279.97 41.238 280.703 45.1895C280.719 45.2822 280.738 45.3749 280.755 45.4693C280.859 46.0357 280.966 46.6022 281.084 47.1669C281.19 47.6794 281.305 48.1902 281.433 48.6976L281.438 48.7128C281.482 48.8848 281.527 49.055 281.575 49.2253L281.576 49.2303C281.706 49.6956 281.851 50.1575 282.015 50.6127C283.007 53.3555 284.736 56.1168 284.1 58.9641Z" fill="#4B1307"/>
<path d="M324.493 101.252C324.462 101.832 324.574 102.41 324.82 102.936C325.443 104.074 326.938 104.332 328.231 104.439C335.786 105.059 343.388 104.828 350.891 103.749C351.298 103.721 351.693 103.599 352.044 103.391C353.111 102.644 352.453 100.822 351.288 100.239C350.124 99.656 348.741 99.7966 347.463 99.544C346.193 99.2246 344.984 98.7006 343.883 97.9924C341.291 96.5042 338.737 94.9527 336.22 93.3378C334.722 92.3764 332.954 91.3503 331.267 91.9203C326.696 93.4654 324.463 96.3252 324.493 101.252Z" fill="#3F3D56"/>
<path d="M268.801 44.4612V44.4629C268.789 44.5337 268.777 44.6028 268.762 44.6719C268.743 44.7866 268.722 44.9029 268.7 45.0175C268.49 46.088 268.234 47.1534 267.939 48.2121C267.129 51.1369 266.044 54.0146 264.968 56.8501C262.08 64.453 259.191 72.0565 256.302 79.6606C255.573 81.5756 254.846 83.4924 254.018 85.3687C253.741 85.9941 253.456 86.6246 253.173 87.2618C252.157 89.5427 251.182 91.8978 250.858 94.3253C250.556 95.923 250.522 97.5596 250.755 99.1686C251.079 100.76 252.046 102.314 253.559 102.903C254.298 103.191 255.356 103.577 255.153 104.344C255.044 104.765 254.565 104.971 254.134 105.042C253.566 105.132 252.985 105.097 252.432 104.938C251.88 104.779 251.369 104.5 250.936 104.122C250.128 103.405 249.507 102.291 248.432 102.171C247.688 102.09 247.004 102.535 246.322 102.847C243.542 104.116 240.303 103.228 237.383 102.326C237.612 101.144 238.8 100.366 239.979 100.13C241.158 99.8918 242.378 100.06 243.581 100.028C243.966 100.049 244.348 99.9506 244.676 99.7469C244.969 99.4776 245.175 99.1264 245.266 98.7388C246.041 96.4446 246.617 94.0882 246.988 91.6955C247.376 89.1955 247.538 86.6566 248.092 84.187C248.522 82.2601 249.186 80.3939 249.757 78.5025C250.859 74.608 251.765 70.6605 252.469 66.6749C252.826 65.0191 253.081 63.3431 253.233 61.6563C253.33 60.2571 253.284 58.8511 253.419 57.457C253.646 55.6432 254.024 53.8516 254.551 52.1012C255.067 50.1912 255.583 48.2823 256.098 46.3745C256.862 43.5508 257.682 40.6176 259.619 38.4227C260.291 37.6499 261.116 37.0235 262.04 36.5822C262.965 36.1408 263.971 35.894 264.995 35.8569C265.379 35.8564 265.762 35.8977 266.137 35.9799C266.199 35.9951 266.262 36.0103 266.324 36.0271C266.733 36.1339 267.125 36.2962 267.49 36.5093C268.087 36.13 268.391 36.2631 268.787 36.8481C269.135 37.4672 269.299 38.1724 269.26 38.8812C269.293 40.7518 269.139 42.6211 268.801 44.4612Z" fill="#FBBEBE"/>
<path d="M269.458 46.6966L269.433 46.7219L269.296 46.8584L267.94 48.2121L267.275 45.4221L264.996 35.8569C265.38 35.8564 265.763 35.8977 266.138 35.9799C266.154 35.8704 266.181 35.7626 266.217 35.658L266.325 36.0271L267.098 38.6536L268.561 43.6402L268.802 44.4612V44.4629L269.458 46.6966Z" fill="#4B1307"/>
<path d="M278.062 16.1811C278.061 17.0668 277.885 17.9436 277.545 18.7613C277.205 19.5791 276.706 20.3218 276.078 20.947C275.851 21.1745 275.607 21.3852 275.349 21.5772C274.185 22.4542 272.767 22.9288 271.309 22.9295H263.216C261.428 22.9268 259.713 22.2149 258.45 20.9502C257.186 19.6856 256.477 17.9715 256.477 16.1844C256.477 14.3972 257.186 12.6832 258.45 11.4185C259.713 10.1538 261.428 9.44197 263.216 9.43921H271.309C273.098 9.44386 274.812 10.1554 276.077 11.4186C277.342 12.6818 278.056 14.3939 278.062 16.1811Z" fill="#2F2E41"/>
<path d="M285.651 16.6894C289.471 16.6894 292.567 13.5949 292.567 9.77761C292.567 5.96035 289.471 2.86584 285.651 2.86584C281.831 2.86584 278.734 5.96035 278.734 9.77761C278.734 13.5949 281.831 16.6894 285.651 16.6894Z" fill="#2F2E41"/>
<path opacity="0.1" d="M285.484 2.86584C285.399 2.86584 285.315 2.86921 285.23 2.87224C287.02 2.93724 288.714 3.69322 289.957 4.98113C291.199 6.26903 291.894 7.98845 291.894 9.77761C291.894 11.5668 291.199 13.2862 289.957 14.5741C288.714 15.862 287.02 16.618 285.23 16.683C285.315 16.686 285.399 16.6894 285.484 16.6894C287.318 16.6894 289.077 15.9612 290.374 14.665C291.671 13.3688 292.4 11.6107 292.4 9.77761C292.4 7.9445 291.671 6.18646 290.374 4.89026C289.077 3.59405 287.318 2.86584 285.484 2.86584Z" fill="black"/>
<path opacity="0.1" d="M252.586 2.86584C252.671 2.86584 252.755 2.86921 252.839 2.87224C251.05 2.93724 249.356 3.69322 248.113 4.98113C246.87 6.26903 246.176 7.98845 246.176 9.77761C246.176 11.5668 246.87 13.2862 248.113 14.5741C249.356 15.862 251.05 16.618 252.839 16.683C252.755 16.686 252.671 16.6894 252.586 16.6894C250.753 16.6878 248.995 15.9588 247.699 14.6628C246.404 13.3668 245.676 11.6097 245.676 9.77761C245.676 7.94555 246.404 6.18844 247.699 4.89241C248.995 3.59637 250.753 2.86746 252.586 2.86584Z" fill="black"/>
<path opacity="0.1" d="M275.349 21.5772C274.185 22.4542 272.767 22.9288 271.309 22.9295H263.216C261.758 22.9288 260.34 22.4542 259.176 21.5772H275.349Z" fill="black"/>
<path d="M327.613 71.6593C327.613 71.6593 329.357 76.6802 330.953 75.3433L329.681 68.7805L327.613 71.6593Z" fill="#FBBEBE"/>
<path d="M539.799 224.772C541.423 225.362 543.162 225.567 544.878 225.371C546.595 225.175 548.243 224.583 549.692 223.642C551.141 222.701 552.351 221.436 553.228 219.948C554.104 218.46 554.622 216.788 554.742 215.066C554.862 213.343 554.579 211.616 553.917 210.021C553.255 208.426 552.231 207.006 550.927 205.874C549.622 204.742 548.072 203.928 546.399 203.497C544.725 203.065 542.975 203.028 541.285 203.388L541.564 209.127L538.847 204.209C536.18 205.461 534.12 207.72 533.119 210.489C532.764 211.459 532.547 212.475 532.477 213.505C532.306 215.923 532.928 218.331 534.249 220.365C535.57 222.398 537.518 223.945 539.799 224.772Z" fill="#2C6159"/>
<path d="M553.243 291.335C552.283 286.455 556.44 282.128 560.545 279.315C564.65 276.503 569.447 273.739 570.848 268.966C572.861 262.107 566.865 255.824 562.197 250.407C558.735 246.387 555.761 241.97 553.339 237.251C552.368 235.358 551.475 233.38 551.22 231.268C550.852 228.228 551.83 225.202 552.814 222.302C556.095 212.64 559.603 203.059 563.338 193.559" stroke="#3F3D56" stroke-miterlimit="10"/>
<path d="M540.256 223.295C541.88 223.885 543.619 224.09 545.336 223.894C547.052 223.698 548.7 223.106 550.149 222.164C551.598 221.223 552.808 219.959 553.684 218.47C554.561 216.982 555.079 215.311 555.199 213.588C555.319 211.865 555.036 210.138 554.374 208.543C553.712 206.948 552.688 205.529 551.384 204.396C550.079 203.264 548.529 202.45 546.855 202.019C545.182 201.588 543.432 201.55 541.742 201.91L542.021 207.649L539.304 202.731C536.637 203.983 534.577 206.242 533.576 209.011C533.221 209.981 533.004 210.997 532.934 212.028C532.763 214.446 533.385 216.854 534.706 218.887C536.027 220.92 537.975 222.468 540.256 223.295V223.295Z" stroke="#3F3D56" stroke-miterlimit="10"/>
<path d="M551.876 191.577C552.514 189.819 553.583 188.251 554.987 187.015C556.39 185.779 558.082 184.917 559.907 184.506L560.826 189.962L562.529 184.232C564.894 184.267 567.187 185.052 569.076 186.474C570.965 187.896 572.353 189.881 573.04 192.143C573.726 194.405 573.676 196.826 572.896 199.057C572.116 201.288 570.646 203.214 568.699 204.556C566.753 205.899 564.429 206.588 562.065 206.525C559.701 206.461 557.418 205.649 555.546 204.204C553.674 202.76 552.309 200.758 551.65 198.489C550.99 196.219 551.069 193.799 551.876 191.577H551.876Z" fill="#2C6159"/>
<path d="M552.489 189.607C553.127 187.849 554.196 186.281 555.6 185.045C557.003 183.809 558.696 182.946 560.52 182.536L561.439 187.992L563.142 182.262C565.507 182.297 567.8 183.082 569.689 184.504C571.578 185.926 572.966 187.911 573.653 190.173C574.34 192.435 574.289 194.856 573.509 197.087C572.729 199.318 571.259 201.244 569.313 202.586C567.366 203.928 565.043 204.618 562.678 204.554C560.314 204.491 558.031 203.679 556.159 202.234C554.287 200.79 552.923 198.788 552.263 196.519C551.603 194.249 551.683 191.828 552.489 189.607H552.489Z" stroke="#3F3D56" stroke-miterlimit="10"/>
<path d="M560.238 250.518C562.813 251.451 565.643 251.405 568.186 250.388C570.73 249.371 572.81 247.454 574.031 245.003C575.251 242.552 575.526 239.737 574.804 237.096C574.081 234.455 572.411 232.173 570.112 230.683L568.804 235.086L567.876 229.566C567.866 229.562 567.857 229.558 567.847 229.555C566.47 229.055 565.007 228.831 563.543 228.896C562.078 228.96 560.641 229.313 559.313 229.933C557.985 230.553 556.792 231.428 555.803 232.509C554.814 233.59 554.048 234.855 553.548 236.232C553.048 237.609 552.824 239.071 552.89 240.534C552.956 241.997 553.309 243.433 553.931 244.76C554.552 246.087 555.429 247.278 556.511 248.266C557.593 249.254 558.859 250.019 560.238 250.518H560.238Z" fill="#2C6159"/>
<path d="M560.769 248.522C563.344 249.456 566.174 249.41 568.718 248.393C571.261 247.376 573.342 245.459 574.562 243.007C575.782 240.556 576.057 237.742 575.335 235.101C574.612 232.46 572.942 230.177 570.644 228.687L569.335 233.091L568.407 227.571C568.398 227.566 568.388 227.563 568.378 227.56C567.001 227.059 565.538 226.835 564.074 226.9C562.609 226.965 561.172 227.317 559.844 227.937C558.516 228.557 557.324 229.433 556.334 230.514C555.345 231.595 554.579 232.86 554.079 234.237C553.579 235.613 553.356 237.075 553.421 238.539C553.487 240.002 553.841 241.438 554.462 242.764C555.083 244.091 555.96 245.282 557.042 246.27C558.124 247.258 559.391 248.023 560.769 248.522H560.769Z" stroke="#3F3D56" stroke-miterlimit="10"/>
<path d="M548.621 269.034C549.063 271.552 550.359 273.842 552.291 275.519C554.222 277.195 556.672 278.157 559.229 278.243C561.786 278.329 564.295 277.534 566.335 275.991C568.375 274.448 569.822 272.251 570.433 269.768C571.044 267.286 570.783 264.669 569.693 262.356C568.602 260.043 566.749 258.175 564.444 257.065C562.139 255.956 559.523 255.672 557.033 256.261C554.543 256.851 552.332 258.278 550.771 260.303L555.742 267.78L548.949 263.812C548.423 265.501 548.31 267.292 548.621 269.034Z" fill="#2C6159"/>
<path d="M549.082 267.557C549.524 270.075 550.82 272.364 552.752 274.041C554.683 275.718 557.133 276.68 559.69 276.766C562.247 276.852 564.756 276.057 566.796 274.514C568.836 272.971 570.283 270.774 570.894 268.291C571.505 265.808 571.244 263.191 570.153 260.878C569.063 258.565 567.21 256.697 564.905 255.588C562.6 254.478 559.983 254.194 557.494 254.784C555.004 255.373 552.793 256.8 551.232 258.826L556.203 266.303L549.41 262.334C548.884 264.024 548.771 265.815 549.082 267.557V267.557Z" stroke="#3F3D56" stroke-miterlimit="10"/>
<path d="M4.82866 251.934C5.89569 252.322 7.03824 252.457 8.16624 252.328C9.29425 252.199 10.3769 251.81 11.3288 251.192C12.2807 250.573 13.0759 249.742 13.6517 248.765C14.2275 247.787 14.5681 246.689 14.6468 245.557C14.7254 244.425 14.5399 243.29 14.1049 242.242C13.6699 241.194 12.9972 240.262 12.14 239.518C11.2827 238.774 10.2643 238.239 9.1649 237.956C8.06554 237.672 6.91533 237.648 5.80493 237.884L5.98843 241.655L4.20322 238.424C2.45115 239.246 1.0976 240.73 0.440024 242.55C0.206491 243.187 0.0645194 243.854 0.0183463 244.532C-0.0943364 246.12 0.314297 247.703 1.18232 249.038C2.05035 250.374 3.33045 251.391 4.82866 251.934Z" fill="#2C6159"/>
<path d="M13.6623 295.667C13.0321 292.461 15.7628 289.618 18.4601 287.77C21.1574 285.922 24.309 284.106 25.2293 280.971C26.552 276.464 22.6122 272.336 19.5457 268.777C17.2707 266.135 15.317 263.234 13.7255 260.133C13.0336 258.915 12.5623 257.584 12.3334 256.202C12.0916 254.204 12.7338 252.217 13.3809 250.311C15.5364 243.963 17.841 237.668 20.2948 231.426" stroke="#3F3D56" stroke-miterlimit="10"/>
<path d="M5.12945 250.964C6.19648 251.351 7.33902 251.486 8.46703 251.357C9.59503 251.228 10.6777 250.839 11.6296 250.221C12.5815 249.602 13.3767 248.772 13.9525 247.794C14.5283 246.816 14.8689 245.718 14.9475 244.586C15.0262 243.454 14.8407 242.319 14.4057 241.271C13.9707 240.224 13.298 239.291 12.4407 238.547C11.5835 237.803 10.565 237.268 9.46568 236.985C8.36633 236.701 7.21612 236.677 6.10572 236.914L6.28921 240.684L4.50401 237.453C2.75193 238.275 1.39838 239.76 0.740806 241.579C0.507275 242.216 0.365306 242.884 0.31913 243.561C0.20644 245.149 0.61507 246.732 1.4831 248.068C2.35112 249.403 3.63123 250.42 5.12945 250.964V250.964Z" stroke="#3F3D56" stroke-miterlimit="10"/>
<path d="M12.7677 230.124C13.1865 228.97 13.8893 227.939 14.8114 227.127C15.7335 226.315 16.8453 225.748 18.0442 225.479L18.6478 229.063L19.7669 225.298C21.3207 225.321 22.8269 225.837 24.0682 226.772C25.3094 227.706 26.2214 229.01 26.6726 230.496C27.1237 231.982 27.0906 233.573 26.578 235.039C26.0655 236.505 25.0999 237.77 23.8209 238.652C22.5418 239.534 21.0154 239.987 19.4621 239.945C17.9087 239.903 16.4087 239.37 15.1787 238.421C13.9487 237.472 13.0523 236.157 12.6189 234.665C12.1856 233.174 12.2377 231.584 12.7677 230.124Z" fill="#2C6159"/>
<path d="M13.1701 228.83C13.5888 227.675 14.2916 226.645 15.2137 225.833C16.1359 225.021 17.2476 224.454 18.4466 224.184L19.0502 227.769L20.1692 224.004C21.723 224.027 23.2293 224.543 24.4705 225.477C25.7118 226.412 26.6238 227.716 27.0749 229.202C27.526 230.688 27.4929 232.279 26.9804 233.745C26.4678 235.21 25.5023 236.476 24.2232 237.358C22.9442 238.239 21.4178 238.692 19.8644 238.651C18.311 238.609 16.811 238.075 15.581 237.126C14.351 236.177 13.4546 234.862 13.0213 233.371C12.5879 231.88 12.64 230.29 13.1701 228.83V228.83Z" stroke="#3F3D56" stroke-miterlimit="10"/>
<path d="M18.2579 268.849C19.9501 269.463 21.809 269.433 23.4803 268.764C25.1516 268.096 26.5184 266.837 27.3202 265.226C28.122 263.616 28.3028 261.767 27.828 260.031C27.3532 258.296 26.2561 256.796 24.7458 255.818L23.8859 258.711L23.2762 255.084C23.2701 255.081 23.2639 255.079 23.2575 255.077C22.3524 254.748 21.3912 254.6 20.429 254.643C19.4668 254.685 18.5225 254.917 17.6498 255.324C16.7772 255.732 15.9935 256.307 15.3434 257.017C14.6934 257.727 14.1897 258.558 13.8613 259.463C13.5328 260.368 13.386 261.328 13.4293 262.29C13.4725 263.251 13.7049 264.195 14.1132 265.067C14.5215 265.938 15.0977 266.721 15.8089 267.37C16.5201 268.019 17.3522 268.522 18.2579 268.849Z" fill="#2C6159"/>
<path d="M18.608 267.538C20.3002 268.152 22.1591 268.121 23.8304 267.453C25.5017 266.785 26.8685 265.526 27.6704 263.915C28.4722 262.305 28.6529 260.455 28.1781 258.72C27.7033 256.985 26.6062 255.485 25.0959 254.506L24.236 257.4L23.6263 253.773C23.6203 253.77 23.614 253.768 23.6076 253.766C22.7027 253.438 21.7419 253.291 20.7802 253.334C19.8186 253.377 18.8748 253.609 18.0027 254.016C16.2416 254.839 14.8797 256.328 14.2168 258.154C13.5538 259.98 13.6439 261.995 14.4675 263.755C15.291 265.515 16.7804 266.876 18.608 267.538V267.538Z" stroke="#3F3D56" stroke-miterlimit="10"/>
<path d="M10.6282 281.015C10.9192 282.67 11.7706 284.174 13.0396 285.275C14.3086 286.377 15.9181 287.009 17.5981 287.066C19.2781 287.122 20.9265 286.6 22.2668 285.586C23.6071 284.572 24.5578 283.129 24.9594 281.497C25.3611 279.866 25.1893 278.147 24.4729 276.627C23.7565 275.108 22.539 273.88 21.0246 273.151C19.5101 272.422 17.791 272.236 16.1553 272.623C14.5196 273.01 13.0669 273.948 12.0409 275.279L15.3071 280.191L10.8443 277.584C10.4982 278.694 10.4241 279.871 10.6282 281.015Z" fill="#2C6159"/>
<path d="M10.929 280.044C11.22 281.699 12.0714 283.203 13.3404 284.305C14.6094 285.406 16.2189 286.038 17.8989 286.095C19.5789 286.151 21.2272 285.629 22.5675 284.615C23.9078 283.601 24.8585 282.158 25.2602 280.527C25.6619 278.896 25.4901 277.176 24.7737 275.656C24.0572 274.137 22.8397 272.91 21.3253 272.181C19.8109 271.452 18.0917 271.265 16.4561 271.652C14.8204 272.04 13.3677 272.977 12.3417 274.308L15.6079 279.22L11.145 276.613C10.799 277.723 10.7249 278.9 10.929 280.044V280.044Z" stroke="#3F3D56" stroke-miterlimit="10"/>
<path d="M257.844 182.752C262.878 182.752 266.958 177.475 266.958 170.965C266.958 164.456 262.878 159.179 257.844 159.179C252.811 159.179 248.73 164.456 248.73 170.965C248.73 177.475 252.811 182.752 257.844 182.752Z" fill="#2F2E41"/>
<path d="M307.434 183.019C312.468 183.019 316.548 177.742 316.548 171.233C316.548 164.724 312.468 159.447 307.434 159.447C302.401 159.447 298.32 164.724 298.32 171.233C298.32 177.742 302.401 183.019 307.434 183.019Z" fill="#2F2E41"/>
<path d="M300.466 206.057C300.466 211.382 293.025 215.7 283.846 215.7C274.668 215.7 267.227 211.382 267.227 206.057C267.227 201.444 272.808 197.587 280.265 196.644C281.452 196.487 282.649 196.41 283.846 196.413C285.853 196.407 287.854 196.622 289.813 197.056C296.043 198.444 300.466 201.953 300.466 206.057Z" fill="#2F2E41"/>
<path d="M259.989 180.073C265.023 180.073 269.103 174.796 269.103 168.286C269.103 161.777 265.023 156.5 259.989 156.5C254.955 156.5 250.875 161.777 250.875 168.286C250.875 174.796 254.955 180.073 259.989 180.073Z" stroke="#3F3D56" stroke-miterlimit="10"/>
<path d="M309.579 180.341C314.612 180.341 318.693 175.064 318.693 168.554C318.693 162.045 314.612 156.768 309.579 156.768C304.545 156.768 300.465 162.045 300.465 168.554C300.465 175.064 304.545 180.341 309.579 180.341Z" stroke="#3F3D56" stroke-miterlimit="10"/>
<path d="M285.991 213.021C295.169 213.021 302.61 208.704 302.61 203.378C302.61 198.052 295.169 193.734 285.991 193.734C276.812 193.734 269.371 198.052 269.371 203.378C269.371 208.704 276.812 213.021 285.991 213.021Z" stroke="#3F3D56" stroke-miterlimit="10"/>
<path d="M290.012 197.86C290.016 198.533 289.763 199.183 289.304 199.677C289.087 199.913 288.824 200.102 288.53 200.232C288.237 200.362 287.92 200.43 287.599 200.431H282.238C281.577 200.408 280.953 200.125 280.501 199.643C280.048 199.161 279.806 198.52 279.825 197.86C279.823 197.337 279.976 196.826 280.265 196.391C281.451 196.224 282.648 196.142 283.846 196.145C285.855 196.139 287.858 196.369 289.813 196.831C289.946 197.158 290.013 197.507 290.012 197.86Z" fill="white"/>
<path d="M259.989 167.751C261.47 167.751 262.67 166.551 262.67 165.072C262.67 163.593 261.47 162.393 259.989 162.393C258.509 162.393 257.309 163.593 257.309 165.072C257.309 166.551 258.509 167.751 259.989 167.751Z" fill="white"/>
<path d="M309.849 167.751C311.329 167.751 312.529 166.551 312.529 165.072C312.529 163.593 311.329 162.393 309.849 162.393C308.368 162.393 307.168 163.593 307.168 165.072C307.168 166.551 308.368 167.751 309.849 167.751Z" fill="white"/>
<path opacity="0.3" d="M312.528 192.931C314.009 192.931 315.209 191.732 315.209 190.252C315.209 188.773 314.009 187.573 312.528 187.573C311.048 187.573 309.848 188.773 309.848 190.252C309.848 191.732 311.048 192.931 312.528 192.931Z" fill="#6C63FF"/>
<path opacity="0.3" d="M247.122 192.931C248.602 192.931 249.803 191.732 249.803 190.252C249.803 188.773 248.602 187.573 247.122 187.573C245.642 187.573 244.441 188.773 244.441 190.252C244.441 191.732 245.642 192.931 247.122 192.931Z" fill="#6C63FF"/>
</g>
<defs>
<clipPath id="clip0_245_4107">
<rect width="576" height="313" fill="white"/>
</clipPath>
</defs>
</svg>
