<svg width="33" height="38" viewBox="0 0 33 38" fill="none" xmlns="http://www.w3.org/2000/svg">
<g filter="url(#filter0_d_1_279)">
<path d="M23.1838 12.0156V7C23.1838 5.34315 21.8406 4 20.1838 4C19.7935 4 19.4207 4.07452 19.0787 4.21009C18.732 2.93647 17.5672 2 16.1838 2C14.8003 2 13.6356 2.93647 13.2889 4.21009C12.9469 4.07452 12.574 4 12.1838 4C10.5269 4 9.18377 5.34315 9.18377 7V12.0156C7.14146 12.0156 5.50401 12.8699 4.41973 13.7409C3.69434 14.3236 3.98238 15.3417 4.72612 15.9008C5.68032 16.6181 6.18377 17.52 6.18377 19V20C6.18377 25.5228 10.6609 30 16.1838 30C21.7066 30 26.1838 25.5228 26.1838 20V19C26.1838 17.52 26.6872 16.6181 27.6414 15.9008C28.3852 15.3417 28.6732 14.3236 27.9478 13.7409C26.8635 12.8699 25.2261 12.0156 23.1838 12.0156Z" fill="#842E1B"/>
<path fill-rule="evenodd" clip-rule="evenodd" d="M12.1838 4V13.5C12.1838 13.7761 12.4076 14 12.6838 14C12.9599 14 13.1838 13.7761 13.1838 13.5V4.17071C12.871 4.06016 12.5344 4 12.1838 4ZM19.1838 4.17071V13.5156C19.1838 13.7918 19.4076 14.0156 19.6838 14.0156C19.9599 14.0156 20.1838 13.7918 20.1838 13.5156V4C19.8331 4 19.4966 4.06016 19.1838 4.17071Z" fill="#DF7962"/>
<path fill-rule="evenodd" clip-rule="evenodd" d="M16.1335 16L16.1838 16.0002L16.234 16C18.6491 16 20.4899 17.6087 21.4028 18.9714C21.8565 19.6488 21.8518 20.5203 21.3836 21.1879C20.4643 22.4985 18.6323 24.0312 16.234 24.0312L16.1838 24.0311L16.1335 24.0312C13.7352 24.0312 11.9032 22.4985 10.9839 21.1879C10.5157 20.5203 10.511 19.6488 10.9648 18.9714C11.8776 17.6087 13.7185 16 16.1335 16ZM16.1961 23.3131C18.0218 23.3131 19.5018 21.8331 19.5018 20.0074C19.5018 18.1817 18.0218 16.7017 16.1961 16.7017C14.3704 16.7017 12.8904 18.1817 12.8904 20.0074C12.8904 21.8331 14.3704 23.3131 16.1961 23.3131Z" fill="white"/>
<path d="M18.0706 20.0075C18.0706 21.0427 17.2314 21.882 16.1961 21.882C15.1609 21.882 14.3216 21.0427 14.3216 20.0075C14.3216 18.9722 15.1609 18.133 16.1961 18.133C17.2314 18.133 18.0706 18.9722 18.0706 20.0075Z" fill="#212121"/>
</g>
<defs>
<filter id="filter0_d_1_279" x="-3.81622" y="0" width="40" height="40" filterUnits="userSpaceOnUse" color-interpolation-filters="sRGB">
<feFlood flood-opacity="0" result="BackgroundImageFix"/>
<feColorMatrix in="SourceAlpha" type="matrix" values="0 0 0 0 0 0 0 0 0 0 0 0 0 0 0 0 0 0 127 0" result="hardAlpha"/>
<feOffset dy="4"/>
<feGaussianBlur stdDeviation="2"/>
<feComposite in2="hardAlpha" operator="out"/>
<feColorMatrix type="matrix" values="0 0 0 0 0 0 0 0 0 0 0 0 0 0 0 0 0 0 0.25 0"/>
<feBlend mode="normal" in2="BackgroundImageFix" result="effect1_dropShadow_1_279"/>
<feBlend mode="normal" in="SourceGraphic" in2="effect1_dropShadow_1_279" result="shape"/>
</filter>
</defs>
</svg>
