<svg width="133" height="138" viewBox="0 0 133 138" fill="none" xmlns="http://www.w3.org/2000/svg">
<g clip-path="url(#clip0_223_3661)">
<path d="M82.2374 51.0714C82.3621 46.291 77.8632 41.4126 73.0702 41.1545C67.7427 40.8696 63.1101 45.1782 62.9854 50.5373C62.8607 55.9408 66.6737 60.0625 71.9744 60.2494C77.5603 60.4453 82.0948 56.3859 82.2374 51.0714Z" fill="#842E1B" fill-opacity="0.16"/>
<path d="M18.1653 66.5697C14.1474 66.6143 10.8867 70.0683 10.8155 74.3591C10.7442 78.641 14.4414 82.5757 18.4771 82.5134C22.3257 82.46 25.809 78.7389 25.8625 74.6261C25.9248 70.1662 22.4504 66.5252 18.1653 66.5697Z" fill="#842E1B" fill-opacity="0.16"/>
<path d="M74.8792 84.2937C70.986 84.2225 67.3512 87.8724 67.4492 91.9673C67.565 96.4451 70.006 98.9644 74.4605 99.2759C78.6743 99.5786 82.1844 96.2848 82.327 92.1276C82.4517 88.4154 78.5942 84.3561 74.8792 84.2937Z" fill="#842E1B" fill-opacity="0.16"/>
<path d="M47.5572 33.276C47.4948 29.5638 43.3611 25.4867 39.7085 25.8962C35.4322 26.368 32.822 28.9674 32.43 33.2582C32.0914 36.9793 36.1539 40.9318 39.9312 40.9585C43.7264 40.9674 47.6195 37.0416 47.5572 33.276Z" fill="#842E1B" fill-opacity="0.16"/>
<path d="M48.2227 97.0685C46.9488 96.9083 45.6926 97.3267 44.5523 97.9498C44.2138 98.1368 43.8841 98.3415 43.5634 98.5641C42.5924 99.2317 41.6747 100.024 41.0333 101.012C39.6524 103.131 39.7861 106.318 40.9977 108.472C42.0578 110.359 44.1336 111.704 46.2984 111.65C50.8508 111.543 53.6928 105.837 52.8108 101.822C52.303 99.5344 50.5569 97.3623 48.2227 97.0685Z" fill="#842E1B" fill-opacity="0.16"/>
<path d="M16.6345 117.418C15.61 117.659 14.6122 118.193 13.7659 119.021C10.7992 121.923 12.5632 126.027 15.9931 127.567C19.8952 129.311 23.824 125.457 22.9153 121.38C22.2026 118.121 19.325 116.777 16.6345 117.418Z" fill="#842E1B" fill-opacity="0.16"/>
<path d="M124.011 44.7241C124.011 44.4748 123.994 44.2256 123.949 43.9763C123.513 41.3502 121.107 38.8487 118.31 39.7033C116.84 40.1573 114.23 42.552 114.39 44.2523C114.595 46.371 117.116 49.549 119.04 49.8606C122.025 50.3413 124.02 47.3324 124.011 44.7241Z" fill="#842E1B" fill-opacity="0.16"/>
<path d="M123.388 102.276C122.862 102.24 122.328 102.303 121.784 102.472C118.889 103.38 117.463 106.122 118.524 109.05C119.922 112.923 125.125 113.608 127.548 110.199C129.793 107.056 127.067 102.525 123.388 102.276Z" fill="#842E1B" fill-opacity="0.16"/>
<path d="M73.7217 127.3C73.597 127.318 73.4812 127.335 73.3654 127.362C70.8531 127.896 69.392 130.745 70.274 133.157C71.4054 136.228 75.4767 136.727 77.6772 134.591C78.9957 133.318 79.2719 131.128 78.381 129.525C77.4901 127.941 75.5391 127.033 73.7217 127.3Z" fill="#842E1B" fill-opacity="0.16"/>
<path d="M95.2087 107.822C93.4982 108.223 91.9837 109.514 91.8323 111.597C91.4403 116.804 100.803 117.196 100.483 111.419C100.305 108.383 97.5607 107.27 95.2087 107.822Z" fill="#842E1B" fill-opacity="0.16"/>
<path d="M3.33232 83.8843C-0.347025 83.4303 -1.01519 88.7092 1.52383 90.5074C6.51278 94.0326 8.79344 84.5608 3.33232 83.8843Z" fill="#842E1B" fill-opacity="0.16"/>
<path d="M100.154 78.7476C99.7883 78.6853 99.4498 78.6675 99.138 78.6853C95.325 78.9879 94.9241 85.433 99.3072 85.6912C101.071 85.798 102.791 84.3648 103.004 82.6111C103.218 80.8574 101.891 79.068 100.154 78.7476Z" fill="#842E1B" fill-opacity="0.16"/>
<path d="M44.8469 128.795C43.6531 129.436 43.1809 130.852 43.4126 132.125C43.5462 132.828 43.8936 133.487 44.4549 133.95C46.2188 135.383 48.7579 134.11 49.3191 132.045C49.8537 130.051 46.4772 127.923 44.8469 128.795Z" fill="#842E1B" fill-opacity="0.16"/>
<path d="M44.1442 71.0655C43.9927 71.0922 43.8502 71.1901 43.7522 71.3771C42.5139 73.8251 43.9838 77.3504 46.8614 77.7153C48.8391 77.9646 50.3625 76.38 50.7278 74.5729C50.8971 74.2613 50.9951 73.932 50.9327 73.6115C50.906 73.4869 50.8525 73.3889 50.7902 73.291C50.7723 73.1664 50.7545 73.0417 50.7278 72.9171C50.5318 72.0358 50.0686 71.4216 49.4806 71.0477C49.2311 70.6204 48.8569 70.2554 48.2957 69.9883C46.9326 69.3474 45.1241 69.9171 44.1442 71.0655Z" fill="#842E1B" fill-opacity="0.16"/>
<path d="M96.8763 12.89C97.4019 9.36479 94.952 6.07102 91.1836 6.58734C89.8562 6.76538 88.7247 7.38852 87.9051 8.25203C87.6913 8.23422 87.4597 8.30544 87.2993 8.51909C85.0454 11.439 86.7381 15.9701 89.9898 17.3856C93.3217 18.8277 96.3952 16.1571 96.8763 12.89Z" fill="#842E1B" fill-opacity="0.16"/>
<path d="M57.5235 1.70923C57.4166 1.51338 57.274 1.37985 57.1137 1.28193C56.7751 0.712193 56.2317 0.258188 55.5903 0.0712439C53.8441 -0.409468 52.196 1.30863 52.4187 3.00893C52.4365 3.13356 52.49 3.22258 52.5523 3.3027C52.6949 3.89914 53.1225 4.40656 53.7016 4.65581C54.3341 5.24335 55.3141 5.24335 56.0713 4.88727C56.9533 4.47777 57.6037 3.50745 57.5235 2.52822C57.5235 2.51932 57.5235 2.51041 57.5235 2.50151C57.6393 2.26115 57.666 1.97629 57.5235 1.70923Z" fill="#842E1B" fill-opacity="0.16"/>
<path d="M131.968 72.6766C130.248 70.9229 127.21 70.9318 125.66 72.6232C125.598 72.6588 125.544 72.7122 125.5 72.7745C125.313 73.0238 125.161 73.2908 125.045 73.5668C124.939 73.8071 124.841 74.0564 124.787 74.3324C124.734 74.5905 124.716 74.8665 124.716 75.1336C124.671 77.2879 126.15 79.5223 128.458 79.6647C131.896 79.8784 134.533 75.2938 131.968 72.6766Z" fill="#842E1B" fill-opacity="0.16"/>
<path d="M0.321382 41.4302C0.606464 42.5785 1.58644 43.54 2.75349 43.718C2.90494 43.7981 3.07421 43.7981 3.21675 43.7447C4.74016 43.6913 5.66668 42.5518 5.80031 41.3412C5.97849 41.0474 6.07649 40.6824 6.0854 40.2106C6.09431 38.8219 5.04306 37.2017 3.53747 37.1572C2.96731 37.1394 2.52186 37.2907 2.17442 37.5489C2.01406 37.54 1.8537 37.5934 1.71116 37.7447C1.47953 37.9851 1.28354 38.2432 1.12318 38.5192C0.428288 39.3115 0.0630255 40.353 0.321382 41.4302Z" fill="#842E1B" fill-opacity="0.16"/>
<path d="M105.375 133.549C104.351 132.864 102.926 133.407 102.712 134.608C101.972 135.668 102.382 137.368 103.629 137.867C104.565 138.241 105.518 137.778 106.044 137.021C106.124 136.968 106.186 136.905 106.231 136.834C107.122 135.606 106.516 134.11 105.375 133.549Z" fill="#842E1B" fill-opacity="0.16"/>
</g>
<defs>
<clipPath id="clip0_223_3661">
<rect width="133" height="138" fill="white"/>
</clipPath>
</defs>
</svg>
