<svg width="290" height="635" viewBox="0 0 290 635" fill="none" xmlns="http://www.w3.org/2000/svg">
<g opacity="0.2">
<path d="M-12.0023 634.985C-17.6873 634.985 -24.4787 633.029 -33.5213 628.599C-57.5204 616.586 -82.1299 580.506 -108.113 542.35C-122.421 521.397 -137.186 499.725 -152.029 481.965C-173.7 449.876 -210.443 427.765 -246.003 406.332C-271.986 390.687 -296.519 375.88 -315.52 357.601L-315.558 357.561C-329.828 343.352 -336.505 329.623 -335.97 315.614C-334.94 288.275 -306.439 263.929 -273.397 235.751L-270.231 233.037C-245.735 212.044 -214.983 183.946 -170.457 141.999L-166.68 138.567C-126.847 102.327 -77.2461 57.2275 -12.9943 29.8882C115.7 -33.4512 228.332 15.5999 263.891 68.7619C300.977 130.904 297.772 196.877 251.682 321.042C203.417 450.474 96.5085 550.532 52.7837 587.53C34.8893 599.743 23.672 610.559 15.507 618.461C5.12903 628.439 -1.6243 634.985 -12.0023 634.985ZM-312.162 353.769C-293.581 371.649 -269.277 386.297 -243.561 401.822C-207.581 423.494 -170.343 445.924 -148.213 478.732C-133.333 496.492 -118.491 518.284 -104.145 539.317C-78.5052 576.914 -54.2772 612.435 -31.4609 623.889C-8.91174 634.865 -3.60834 629.756 12.1494 614.59C20.467 606.568 31.8752 595.552 49.884 583.26C93.0746 546.661 199.22 447.361 247.065 319.086C292.507 196.718 295.827 131.942 259.771 71.5557C225.241 19.9901 115.242 -27.5842 -11.0102 34.5578C-74.6134 61.6576 -123.871 106.438 -163.437 142.398L-167.176 145.831C-211.74 187.818 -242.531 215.955 -267.102 236.988L-270.269 239.702C-302.395 267.082 -330.095 290.749 -331.048 315.734C-331.506 328.226 -325.325 340.638 -312.162 353.769Z" fill="#DFD1C6"/>
<path d="M-19.7467 598.823C-27.6065 598.823 -35.9242 596.189 -47.3705 591.519L-47.5994 591.439C-69.5762 579.905 -86.9746 552.087 -105.365 522.672C-117.918 502.557 -130.928 481.803 -146.572 463.723C-168.625 434.388 -196.363 411.559 -223.147 389.488C-241.156 374.68 -258.173 360.672 -273.015 345.186L-273.282 344.867C-303.5 301.802 -281.829 282.804 -242.53 248.281C-238.256 244.529 -233.754 240.578 -229.061 236.348C-219.828 229.203 -209.984 221.221 -199.53 212.76C-153.096 175.124 -89.4546 123.598 0.322418 81.7708C110.054 37.8283 194.833 69.5978 230.24 120.565C265.724 173.687 251.95 237.625 212.079 344.428C168.392 452.428 88.6496 522.353 45.8024 559.909L41.0331 564.1C9.17426 588.845 -4.48502 598.823 -19.7467 598.823ZM-45.4627 586.73C-14.2144 599.422 -8.91089 596.388 37.9807 560.069L42.6356 555.998C85.1394 518.721 164.271 449.315 207.5 342.552C246.723 237.545 260.42 174.804 226.234 123.638C191.971 74.3074 109.406 43.6953 2.23013 86.6001C-86.8983 128.108 -150.234 179.434 -196.516 216.871C-206.97 225.332 -216.814 233.314 -225.971 240.419C-230.549 244.529 -235.051 248.481 -239.325 252.272C-278.662 286.836 -296.671 302.64 -269.39 341.674C-254.777 356.88 -237.913 370.729 -220.095 385.417C-193.043 407.647 -165.115 430.676 -142.794 460.37C-126.998 478.61 -113.873 499.563 -101.206 519.838C-83.2355 548.574 -66.2187 575.754 -45.4627 586.73Z" fill="#DFD1C6"/>
<path d="M-26.4639 568.655C-36.4984 568.655 -45.8081 564.903 -57.407 558.517C-76.7894 546.304 -92.3564 521.04 -108.839 494.34C-118.607 478.455 -128.756 462.051 -140.354 447.005C-156.57 423.377 -175.8 403.182 -194.343 383.625C-209.566 367.581 -223.951 352.455 -235.282 336.849L-235.435 336.61C-258.404 296.14 -234.672 277.262 -191.558 242.978L-191.061 242.578L-183.087 236.871C-137.684 204.503 -75.4922 160.161 9.70638 128.033C110.281 94.4673 174.304 128.671 198.608 168.104C224.591 210.17 218.22 266.645 176.631 363.031C146.337 430.202 96.8889 490.588 29.6992 542.513C3.71617 560.952 -12.1179 568.655 -26.4639 568.655ZM-231.276 333.776C-220.135 349.062 -205.904 364.069 -190.833 379.914C-172.137 399.59 -152.793 419.985 -136.425 443.812C-124.711 458.938 -114.524 475.501 -104.68 491.506C-88.5409 517.728 -73.2792 542.473 -54.9651 554.007C-28.5624 568.615 -15.3991 568.335 26.8377 538.282C93.3025 486.876 142.216 427.169 172.129 360.836C212.916 266.286 219.402 211.248 194.449 170.858C169.229 129.949 102.841 102.33 11.2707 132.862C-73.241 164.751 -135.127 208.853 -180.302 241.102L-188.581 247.049C-232.001 281.572 -251.879 297.377 -231.276 333.776Z" fill="#DFD1C6"/>
<path d="M-30.0488 541.19C-41.2662 541.19 -51.7968 537.158 -63.5483 529.256L-63.6246 529.216C-81.3282 516.524 -95.5979 492.657 -110.707 467.433C-117.689 455.739 -124.939 443.686 -132.798 432.191C-143.291 415.349 -154.928 399.783 -166.183 384.777C-179.995 366.338 -193.082 348.896 -201.629 331.974C-216.547 296.253 -194.723 277.575 -157.026 250.954C-118.185 225.81 -58.1685 189.969 15.393 168.816C85.635 153.69 138.25 165.823 163.699 202.94C191.17 242.932 184.34 306.351 144.965 376.954C103.72 460.05 38.5145 508.781 19.5136 521.713C-0.708145 534.804 -15.9317 541.19 -30.0488 541.19ZM-60.8775 524.906C-38.9006 539.633 -21.6549 542.267 16.8428 517.323C35.5384 504.591 99.9047 456.498 140.615 374.44C178.999 305.593 185.943 244.209 159.654 205.974C135.388 170.612 84.5667 159.237 16.4994 173.885C-56.299 194.838 -115.896 230.399 -154.394 255.344C-193.197 282.723 -210.099 299.007 -197.241 329.779C-188.961 346.103 -176.027 363.344 -162.33 381.624C-150.998 396.75 -139.285 412.356 -128.754 429.318C-120.856 440.812 -113.607 452.985 -106.586 464.719C-91.7061 489.424 -77.7035 512.812 -60.8775 524.906Z" fill="#DFD1C6"/>
<path d="M-32.0714 516.131C-43.9755 516.131 -54.9258 511.86 -66.2958 503.319L-66.601 503.04C-110.135 456.942 -161.605 351.377 -171.487 330.702L-171.64 330.224C-179.347 300.609 -161.949 283.208 -127.19 261.456C-94.4537 242.219 -42.7546 216.835 17.8344 204.982C73.616 195.802 115.395 208.174 135.54 239.824C157.899 274.986 151.069 328.428 116.845 386.459C86.7029 442.415 42.2913 482.685 10.7759 501.683C-5.70679 511.341 -19.4423 516.131 -32.0714 516.131ZM-63.2434 499.248C-41.4573 515.492 -22.0368 514.934 8.29587 497.173C39.239 478.534 82.8494 438.942 112.572 383.825C145.308 328.308 152.328 275.585 131.42 242.698C112.419 212.804 72.3569 201.19 18.6738 210.09C-41.1902 221.824 -92.317 246.968 -124.71 265.966C-157.981 286.76 -173.662 302.206 -166.947 328.667C-138.56 388.055 -96.4758 463.967 -63.2434 499.248Z" fill="#DFD1C6"/>
<path d="M-34.1314 493.021C-46.875 493.021 -57.9015 488.591 -66.2573 480.01C-99.6805 446.126 -134.477 374.644 -144.741 331.66C-146.419 321.722 -144.016 312.023 -137.682 302.764C-118.147 274.227 -60.2671 249.602 17.1861 236.91C60.8728 232.48 93.4566 244.733 109.023 271.433C126.651 301.686 120.317 345.709 91.6633 392.165C54.3865 450.955 9.78421 488.472 -27.6451 492.622C-29.8581 492.902 -32.0329 493.021 -34.1314 493.021ZM34.2029 241.181C28.9376 241.181 23.4816 241.46 17.8348 242.059C-58.1686 254.511 -114.866 278.338 -133.6 305.797C-139.17 313.939 -141.269 322.281 -139.857 330.622C-129.784 372.729 -95.598 443.052 -62.7471 476.339C-54.0861 485.199 -42.1056 489.07 -28.1412 487.514C7.83832 483.523 51.1053 446.844 87.5426 389.372C114.708 345.309 121.195 302.245 104.827 274.147C92.2737 252.635 67.5116 241.181 34.2029 241.181Z" fill="#DFD1C6"/>
<path d="M-32.9508 471.071C-44.7786 471.071 -55.1947 467.08 -63.3216 459.337C-92.3189 431.838 -119.141 373.687 -120.667 334.933V334.853C-120.858 299.132 -64.0847 269.798 14.2842 265.168C47.6692 264.33 72.4314 275.984 84.0685 298.095C97.4225 323.439 91.9282 358.6 68.9975 394.601C40.6488 438.343 5.16534 466.76 -25.9686 470.632C-28.3723 470.911 -30.6996 471.071 -32.9508 471.071ZM-115.707 334.773C-114.181 372.37 -88.16 428.805 -59.964 455.505C-51.3793 463.687 -39.8567 467.12 -26.579 465.483C3.1432 461.771 37.3295 434.193 64.8768 391.687C86.7393 357.363 92.1572 324.117 79.7189 300.529C68.9975 280.214 45.876 269.438 14.475 270.277C-59.8496 274.707 -115.86 302.445 -115.707 334.773Z" fill="#DFD1C6"/>
<path d="M-31.2307 450.271C-41.5705 450.271 -50.8038 446.958 -58.2439 440.452C-84.3796 417.743 -102.961 371.765 -98.8783 339.995C-94.4524 309.503 -46.874 287.632 9.28915 290.146C33.9368 291.623 52.0983 302.239 60.4922 320C70.1071 340.355 65.7193 367.375 48.3973 394.075C27.9466 425.326 0.971504 446.12 -23.7525 449.712C-26.3088 450.111 -28.7888 450.271 -31.2307 450.271ZM0.399193 295.135C-49.4303 295.135 -90.1409 314.412 -93.9564 340.754C-97.7718 370.408 -79.6103 415.149 -55.0771 436.501C-46.9884 443.526 -36.4197 446.319 -24.4392 444.603C-1.05065 441.211 24.6272 421.215 44.3148 391.162C60.6067 366.058 64.8799 340.953 56.0663 322.275C48.5117 306.27 31.8002 296.692 9.06023 295.295C6.16051 295.215 3.26077 295.135 0.399193 295.135Z" fill="#DFD1C6"/>
<path d="M-29.2473 430.396C-37.565 430.396 -45.1195 427.882 -51.4531 422.973C-73.3918 405.93 -85.7156 371.647 -78.9242 346.542C-72.0183 321.717 -36.1533 306.79 2.64964 312.538C19.8572 315.212 32.4863 324.152 38.2095 337.722C44.6957 353.088 41.4907 372.565 29.434 391.163C15.584 412.396 -2.99718 426.445 -21.5402 429.678C-24.1347 430.157 -26.7292 430.396 -29.2473 430.396ZM-74.1549 347.979C-80.3359 370.768 -68.5844 403.216 -48.5152 418.822C-41.3804 424.369 -32.3378 426.365 -22.3414 424.609C-5.36271 421.616 12.4935 408.046 25.3896 388.29C36.4544 371.208 39.4685 353.567 33.7072 339.837C28.709 327.944 17.4154 320.081 1.96289 317.686C-33.864 312.338 -68.0121 325.948 -74.1549 347.979Z" fill="#DFD1C6"/>
<path d="M-27.1493 411.165C-32.9106 411.165 -38.4811 409.609 -43.3649 406.256C-59.6949 395.201 -67.3258 371.733 -60.4198 353.972C-53.4758 336.291 -28.7136 326.753 -5.17237 332.739C5.7016 335.493 13.6377 342.238 17.186 351.657C21.0778 362.034 19.0937 374.646 11.7681 386.221C1.65719 402.105 -13.3374 411.165 -27.1493 411.165ZM-40.6941 401.946C-26.6151 411.485 -4.94345 403.183 7.64746 383.387C14.0574 373.249 15.8888 362.354 12.5693 353.573C9.63146 345.75 2.91628 340.123 -6.35521 337.768C-27.6072 332.38 -49.8129 340.522 -55.8413 355.928C-61.9078 371.533 -55.1164 392.167 -40.6941 401.946Z" fill="#DFD1C6"/>
</g>
</svg>
